<svg width="18" height="12" viewBox="0 0 18 12" fill="none" xmlns="http://www.w3.org/2000/svg">
<g clip-path="url(#clip0_336_307)">
<path d="M11.9316 6.092L17.9999 9.92825V2.09375L11.9316 6.092Z" fill="#828282"/>
<path d="M0 2.09375V9.92825L6.06825 6.092L0 2.09375Z" fill="#828282"/>
<path d="M16.8745 -0.1875H1.12445C0.563078 -0.1875 0.117578 0.231 0.0332031 0.769875L8.99945 6.67725L17.9657 0.769875C17.8813 0.231 17.4358 -0.1875 16.8745 -0.1875Z" fill="#828282"/>
<path d="M10.9004 6.77163L9.30853 7.82013C9.21403 7.88201 9.10716 7.91238 8.99916 7.91238C8.89116 7.91238 8.78428 7.88201 8.68978 7.82013L7.09791 6.77051L0.0351562 11.2379C0.121781 11.7723 0.565031 12.1874 1.12416 12.1874H16.8742C17.4333 12.1874 17.8765 11.7723 17.9632 11.2379L10.9004 6.77163Z" fill="#828282"/>
</g>
<defs>
<clipPath id="clip0_336_307">
<rect width="18" height="12" fill="white"/>
</clipPath>
</defs>
</svg>
