<svg width="15" height="15" viewBox="0 0 15 15" fill="none" xmlns="http://www.w3.org/2000/svg">
<path d="M7.49948 0C4.47566 0 2.01562 2.50424 2.01562 5.58238C2.01562 7.30416 2.88645 9.394 4.60398 11.7938C5.86088 13.5501 7.09943 14.8027 7.15155 14.8552C7.24735 14.9516 7.37339 15 7.49957 15C7.62209 15 7.7447 14.9544 7.83974 14.8628C7.89197 14.8125 9.13367 13.6107 10.3929 11.8786C12.1118 9.51433 12.9834 7.39598 12.9834 5.58235C12.9833 2.50424 10.5232 0 7.49948 0ZM7.49948 7.99238C6.02116 7.99238 4.81849 6.78968 4.81849 5.31139C4.81849 3.83309 6.02119 2.6304 7.49948 2.6304C8.97778 2.6304 10.1805 3.83309 10.1805 5.31139C10.1805 6.78968 8.97775 7.99238 7.49948 7.99238Z" fill="#828282"/>
</svg>
