<svg width="32" height="32" viewBox="0 0 32 32" fill="none" xmlns="http://www.w3.org/2000/svg">
<rect width="32" height="32" rx="16" fill="black"/>
<path d="M24.0859 13.4849C24.086 11.8785 23.4353 10.3643 22.2538 9.22109C21.0724 8.07786 19.5075 7.44824 17.8472 7.44824H14.1508C14.1506 7.44824 14.1506 7.44824 14.1506 7.44824C12.4907 7.44824 10.9256 8.07786 9.74429 9.22096C8.5628 10.3643 7.91211 11.8785 7.91211 13.4849V16.2964C7.91211 17.5405 8.30428 18.7371 9.04626 19.7572C9.70086 20.657 10.5812 21.36 11.6076 21.8056V23.4206C11.6076 24.2556 12.0908 24.5519 12.5046 24.5519C12.8002 24.5519 13.0958 24.4107 13.3836 24.1324L15.243 22.3332L17.8474 22.3331C19.5075 22.3331 21.0724 21.7034 22.2538 20.5603C23.4353 19.4171 24.086 17.9028 24.086 16.2964L24.0859 13.4849ZM17.8474 21.3309L15.0286 21.331C14.8911 21.331 14.7595 21.3837 14.6624 21.4777L12.6513 23.4237C12.6487 23.4263 12.646 23.4288 12.6433 23.4313C12.6433 23.4277 12.6433 23.4241 12.6433 23.4206V21.4712C12.6433 21.2633 12.5108 21.0771 12.3101 21.003C10.2991 20.2605 8.94795 18.369 8.94795 16.2964V13.4849C8.94795 12.1462 9.49089 10.8835 10.4767 9.92952C11.4625 8.97577 12.7673 8.45041 14.1508 8.45041H17.8472C19.2307 8.45041 20.5356 8.97577 21.5214 9.92965C22.5074 10.8837 23.0503 12.1463 23.0502 13.4849L23.0503 16.2964C23.0502 19.0725 20.7162 21.3309 17.8474 21.3309Z" fill="white"/>
<path d="M17.3786 15.6428C17.1765 15.447 16.8486 15.447 16.6463 15.6428L16.228 16.0474L14.607 14.479L15.0254 14.0744C15.1225 13.9804 15.1771 13.8529 15.1771 13.72C15.1771 13.5871 15.1225 13.4596 15.0254 13.3657L13.0643 11.4681C12.9672 11.3741 12.8355 11.3213 12.6981 11.3213C12.5608 11.3213 12.4291 11.3741 12.332 11.4681L10.9591 12.7965C10.2167 13.5148 10.2167 14.6839 10.9593 15.4026L15.2735 19.5774C15.6322 19.9244 16.1106 20.1155 16.6202 20.1155C17.1299 20.1155 17.6083 19.9244 17.967 19.5774L19.3399 18.2492C19.437 18.1551 19.4916 18.0277 19.4916 17.8948C19.4916 17.7619 19.437 17.6344 19.3399 17.5405L17.3786 15.6428ZM17.2346 18.8686C17.0716 19.0264 16.8534 19.1133 16.6202 19.1133C16.387 19.1133 16.1688 19.0264 16.0058 18.8686L11.6917 14.694C11.3529 14.3662 11.3528 13.8327 11.6915 13.5051L12.6981 12.5309L13.9268 13.72L13.5085 14.1246C13.4114 14.2186 13.3568 14.3461 13.3568 14.4789C13.3568 14.6119 13.4114 14.7392 13.5085 14.8333L15.8617 17.1104C16.064 17.306 16.3919 17.3061 16.5942 17.1104L17.0125 16.7057L18.2412 17.8946L17.2346 18.8686Z" fill="white"/>
<path d="M16.1233 9.66504C15.8373 9.66504 15.6055 9.88935 15.6055 10.1661C15.6055 10.4428 15.8373 10.6672 16.1233 10.6672C17.3085 10.6672 18.4228 11.1137 19.2608 11.9247C20.0989 12.7356 20.5604 13.8137 20.5604 14.9606C20.5604 15.2373 20.7922 15.4617 21.0783 15.4617C21.3642 15.4617 21.5961 15.2374 21.5961 14.9606C21.5961 13.5461 21.0269 12.2163 19.9932 11.2161C18.9595 10.2158 17.5852 9.66504 16.1233 9.66504Z" fill="white"/>
<path d="M18.3417 14.9592C18.3417 15.2358 18.5737 15.4602 18.8596 15.4602C19.1456 15.4602 19.3774 15.2358 19.3774 14.9592C19.3774 13.223 17.9176 11.8105 16.1233 11.8105C15.8373 11.8105 15.6055 12.0349 15.6055 12.3116C15.6055 12.5884 15.8373 12.8127 16.1233 12.8127C17.3466 12.8127 18.3417 13.7756 18.3417 14.9592Z" fill="white"/>
</svg>
