<svg width="32" height="32" viewBox="0 0 32 32" fill="none" xmlns="http://www.w3.org/2000/svg">
<rect width="32" height="32" rx="16" fill="black"/>
<path d="M21.7274 10.2726C20.2618 8.80701 18.3137 8 16.241 8C16.2408 8 16.2404 8 16.2402 8C15.2151 8.00012 14.2161 8.19861 13.2711 8.59009C12.3261 8.98157 11.4794 9.54761 10.7544 10.2726C9.28894 11.738 8.48194 13.6865 8.48194 15.759C8.48194 16.995 8.78015 18.2233 9.34522 19.3176L8.04102 23.0435C7.9491 23.3063 8.01416 23.5919 8.21118 23.7888C8.349 23.9268 8.5304 24 8.71692 24C8.79688 24 8.87769 23.9866 8.95654 23.959L12.6824 22.6549C13.7767 23.22 15.005 23.5182 16.241 23.5182C18.3135 23.5182 20.2618 22.7111 21.7274 21.2456C23.1929 19.7802 24 17.8317 24 15.7592C24 13.6865 23.193 11.738 21.7274 10.2726ZM21.0638 20.582C19.7756 21.8704 18.0627 22.5797 16.241 22.5797C15.1265 22.5797 14.0193 22.3041 13.0391 21.7823C12.8613 21.6879 12.6512 21.6716 12.4626 21.7377L9.07764 22.9224L10.2625 19.5374C10.3285 19.3485 10.3121 19.1384 10.2177 18.9608C9.69605 17.9808 9.42029 16.8737 9.42029 15.759C9.42029 13.9373 10.1298 12.2244 11.418 10.9362C12.7061 9.64807 14.4187 8.9386 16.2404 8.93835H16.241C18.0629 8.93835 19.7756 9.64783 21.0638 10.9362C22.3522 12.2244 23.0616 13.9371 23.0616 15.759C23.0616 17.5809 22.3522 19.2938 21.0638 20.582Z" fill="white"/>
<path d="M19.1234 16.452C18.7665 16.0951 18.1857 16.0951 17.8287 16.452L17.4384 16.8424C16.469 16.3142 15.6846 15.5298 15.1563 14.5604L15.5466 14.17C15.9037 13.8131 15.9037 13.2323 15.5466 12.8754L14.4946 11.8234C14.1377 11.4664 13.5569 11.4664 13.2 11.8234L12.3584 12.6649C11.8763 13.147 11.8523 13.9757 12.2907 14.9985C12.6713 15.8866 13.3678 16.8627 14.252 17.7468C15.1361 18.631 16.1122 19.3275 17.0002 19.7081C17.4862 19.9164 17.9282 20.0203 18.3102 20.0203C18.7322 20.0203 19.0808 19.8934 19.3339 19.6404L20.1754 18.7987V18.7988C20.3484 18.6259 20.4436 18.396 20.4436 18.1515C20.4436 17.9069 20.3484 17.677 20.1754 17.5042L19.1234 16.452ZM18.6703 18.9768C18.5327 19.1144 18.1096 19.1626 17.37 18.8457C16.589 18.511 15.7173 17.885 14.9155 17.0833C14.1138 16.2815 13.4879 15.4099 13.1532 14.6289C12.8362 13.8893 12.8844 13.4661 13.022 13.3285L13.8474 12.5031L14.8669 13.5227L14.3783 14.0115C14.1574 14.2324 14.104 14.5675 14.2457 14.8453C14.8882 16.1051 15.8937 17.1106 17.1534 17.7531C17.4314 17.8948 17.7665 17.8416 17.9874 17.6205L18.4761 17.1318L19.4957 18.1515L18.6703 18.9768Z" fill="white"/>
</svg>
