<svg width="15" height="15" viewBox="0 0 15 15" fill="none" xmlns="http://www.w3.org/2000/svg">
<g clip-path="url(#clip0_336_376)">
<path d="M7.5 0C3.36443 0 0 3.36443 0 7.5C0 11.6356 3.36443 15 7.5 15C11.6356 15 15 11.6356 15 7.5C15 3.36443 11.6356 0 7.5 0ZM7.5 13.3607C4.26835 13.3607 1.63934 10.7317 1.63934 7.5C1.63934 4.26851 4.26835 1.63934 7.5 1.63934C10.7317 1.63934 13.3607 4.26851 13.3607 7.5C13.3607 10.7317 10.7317 13.3607 7.5 13.3607Z" fill="#828282"/>
<path d="M8.14959 7.50929V4.36588C8.14959 4.01489 7.86517 3.73047 7.51431 3.73047C7.16335 3.73047 6.87891 4.01489 6.87891 4.36588V7.71228C6.87891 7.72227 6.88137 7.73165 6.88185 7.74164C6.87349 7.91441 6.93301 8.08984 7.06497 8.22182L9.43138 10.588C9.67959 10.8362 10.0819 10.8362 10.3299 10.588C10.5779 10.3398 10.5781 9.93756 10.3299 9.68951L8.14959 7.50929Z" fill="#828282"/>
</g>
<defs>
<clipPath id="clip0_336_376">
<rect width="15" height="15" fill="white"/>
</clipPath>
</defs>
</svg>
