<svg width="18" height="14" viewBox="0 0 18 14" fill="none" xmlns="http://www.w3.org/2000/svg">
<path d="M17.9959 5.08161C18.0363 3.8787 17.7803 2.68479 17.2518 1.61075C16.8932 1.17004 16.3955 0.872629 15.8454 0.770343C13.5703 0.558163 11.2857 0.471197 9.00153 0.509819C6.72568 0.469444 4.44935 0.553604 2.1822 0.76194C1.73397 0.845742 1.31917 1.06183 0.988407 1.38384C0.252508 2.08137 0.170742 3.27474 0.088975 4.28323C-0.0296584 6.09645 -0.0296584 7.91581 0.088975 9.72903C0.11263 10.2966 0.194858 10.8601 0.334275 11.4098C0.432865 11.8343 0.632333 12.227 0.914817 12.5528C1.24783 12.8919 1.67229 13.1202 2.13314 13.2083C3.89596 13.4319 5.67217 13.5246 7.44797 13.4856C10.3098 13.5277 12.82 13.4856 15.7882 13.2503C16.2603 13.1677 16.6967 12.939 17.0392 12.5948C17.2681 12.3594 17.4391 12.0713 17.538 11.7544C17.8304 10.8322 17.974 9.86695 17.9631 8.89704C17.9959 8.42641 17.9959 5.58585 17.9959 5.08161ZM7.15361 9.40128V4.19919L11.9942 6.81284C10.6369 7.58601 8.84618 8.46003 7.15361 9.40128Z" fill="white"/>
</svg>
